<svg width="17" height="14" viewBox="0 0 17 14" fill="none" xmlns="http://www.w3.org/2000/svg">
<path d="M6.05625 13.3906C6.38169 13.716 6.90933 13.716 7.23476 13.3906L7.51458 13.1107C7.84002 12.7853 7.84002 12.2577 7.51458 11.9322L3.83301 8.25065C3.75613 8.17377 3.81058 8.04232 3.9193 8.04232L15.4997 8.04232C15.9599 8.04232 16.333 7.66922 16.333 7.20898L16.333 6.79232C16.333 6.33208 15.9599 5.95898 15.4997 5.95898L3.9193 5.95898C3.81058 5.95898 3.75613 5.82753 3.83301 5.75065L7.51459 2.06907C7.84002 1.74364 7.84002 1.216 7.51459 0.890562L7.23476 0.61074C6.90933 0.285303 6.38169 0.285303 6.05625 0.610739L0.255598 6.41139C-0.0698398 6.73683 -0.0698398 7.26447 0.255598 7.5899L6.05625 13.3906Z" fill="#25265E" fill-opacity="0.4"/>
</svg>
