<svg fill="rgba(37, 38, 94, 0.7)" xmlns="http://www.w3.org/2000/svg" viewBox="0 0 16 16" width="18" height="18" >
  <path d="M5.038 2.22a.889.889 0 000-1.778v1.777zM.445 5.033a.889.889 0 101.778 0H.445zm13.334 0a.889.889 0 001.777 0H13.78zM10.964.44a.889.889 0 000 1.778V.441zm0 13.334a.889.889 0 000 1.778v-1.778zm4.592-2.815a.889.889 0 00-1.777 0h1.777zm-13.333 0a.889.889 0 00-1.778 0h1.778zm2.815 4.593a.889.889 0 000-1.778v1.778zm0-15.111H2.815v1.777h2.223V.442zm-2.223 0a2.37 2.37 0 00-2.37 2.37h1.778c0-.327.265-.593.592-.593V.442zm-2.37 2.37v2.222h1.778V2.812H.445zm15.111 2.222V2.812H13.78v2.222h1.777zm0-2.222a2.37 2.37 0 00-2.37-2.37v1.777c.327 0 .593.265.593.593h1.777zm-2.37-2.37h-2.222v1.777h2.222V.441zm-2.222 15.11h2.222v-1.777h-2.222v1.778zm2.222 0a2.37 2.37 0 002.37-2.37H13.78a.593.593 0 01-.593.593v1.778zm2.37-2.37V10.96H13.78v2.222h1.777zM.446 10.96v2.222h1.777V10.96H.445zm0 2.222a2.37 2.37 0 002.37 2.37v-1.777a.593.593 0 01-.593-.593H.445zm2.37 2.37h2.222v-1.777H2.816v1.778z" fill-opacity=".7"/>
</svg>
