<svg xmlns="http://www.w3.org/2000/svg" viewBox="0 0 16 16" width="18" height="18" fill="rgba(37, 38, 94, 0.7)">
  <path fill="#25265E" fill-opacity=".7" d="M5.926 1.334a.889.889 0 10-1.778 0h1.778zM1.333 4.15a.889.889 0 100 1.778V4.149zm13.334 1.778a.889.889 0 000-1.778v1.778zm-2.815-4.593a.889.889 0 00-1.778 0h1.778zm-1.778 13.334a.889.889 0 001.778 0h-1.778zm4.593-2.815a.889.889 0 000-1.778v1.778zM1.334 10.075a.889.889 0 000 1.778v-1.778zm2.814 4.593a.889.889 0 001.778 0H4.148zm0-13.334v2.223h1.778V1.334H4.148zm0 2.223a.593.593 0 01-.592.592v1.778a2.37 2.37 0 002.37-2.37H4.148zm-.592.592H1.333v1.778h2.223V4.149zm11.11 0h-2.221v1.778h2.222V4.149zm-2.221 0a.593.593 0 01-.593-.593h-1.778a2.37 2.37 0 002.37 2.37V4.15zm-.593-.593V1.334h-1.778v2.222h1.778zm0 11.112v-2.222h-1.778v2.222h1.778zm0-2.222c0-.328.265-.593.593-.593v-1.778a2.37 2.37 0 00-2.37 2.37h1.777zm.593-.593h2.222v-1.778h-2.222v1.778zm-11.111 0h2.222v-1.778H1.334v1.778zm2.222 0c.327 0 .592.265.592.593h1.778a2.37 2.37 0 00-2.37-2.37v1.777zm.592.593v2.222h1.778v-2.222H4.148z"/>
</svg>
